<?xml version="1.0" standalone="no"?>
<!DOCTYPE svg PUBLIC "-//W3C//DTD SVG 20010904//EN"
 "http://www.w3.org/TR/2001/REC-SVG-20010904/DTD/svg10.dtd">
<svg version="1.0" xmlns="http://www.w3.org/2000/svg"
 width="500.000000pt" height="500.000000pt" viewBox="0 0 500.000000 500.000000"
 preserveAspectRatio="xMidYMid meet">
<metadata>
Created by potrace 1.16, written by Peter Selinger 2001-2019
</metadata>
<g transform="translate(0.000000,500.000000) scale(0.100000,-0.100000)"
fill="#000000" stroke="none">
<path d="M1130 2505 l0 -585 1370 0 1370 0 0 585 0 585 -1370 0 -1370 0 0
-585z m2730 -5 l0 -570 -1360 0 -1360 0 0 570 0 570 1360 0 1360 0 0 -570z"/>
<path d="M1210 2500 l0 -510 1290 0 1290 0 0 510 0 510 -1290 0 -1290 0 0
-510z m602 327 c66 -32 141 -110 170 -175 33 -72 36 -191 8 -267 -31 -82 -122
-173 -205 -204 -82 -31 -207 -27 -280 9 -64 31 -134 101 -165 165 -22 44 -25
64 -25 155 0 92 3 111 25 155 42 84 127 156 220 186 14 5 64 7 111 6 69 -2 96
-8 141 -30z m614 -88 c-3 -17 -6 -38 -6 -45 0 -23 -47 -17 -53 6 -3 14 -14 20
-31 20 -22 0 -26 -4 -26 -30 0 -28 2 -30 40 -30 36 0 40 -2 40 -25 0 -22 -4
-25 -40 -25 -39 0 -40 -1 -40 -35 0 -28 4 -35 19 -35 20 0 51 25 51 41 0 5 11
9 25 9 27 0 30 -12 19 -68 l-6 -30 -109 0 c-96 1 -109 3 -109 19 0 9 7 19 15
23 12 4 15 25 15 101 0 78 -3 95 -15 95 -17 0 -18 2 -9 24 5 13 25 16 116 16
l111 0 -7 -31z m1244 -18 c0 -41 -3 -50 -21 -54 -12 -3 -22 0 -25 9 -2 8 -6
21 -9 29 -2 8 -9 15 -15 15 -6 0 -10 -35 -10 -90 0 -83 1 -90 20 -90 14 0 20
-7 20 -24 0 -23 -3 -23 -80 -23 -70 0 -80 2 -80 18 0 10 9 21 20 24 18 6 20
15 20 96 0 86 -13 117 -26 64 -3 -14 -10 -25 -14 -25 -5 0 -15 -3 -24 -6 -13
-5 -16 1 -16 30 0 25 -4 36 -15 36 -12 0 -15 -17 -15 -95 0 -80 3 -95 16 -95
10 0 14 -7 12 -22 -3 -21 -9 -23 -70 -25 -59 -1 -68 1 -68 17 0 10 7 20 15 24
12 4 15 25 15 101 0 78 -3 95 -15 95 -8 0 -15 9 -15 20 0 19 7 20 190 20 l190
0 0 -49z m-1139 -99 c-2 -67 -1 -73 16 -70 14 2 19 14 21 51 2 28 -1 47 -7 47
-6 0 -11 8 -11 19 0 14 10 20 41 25 22 4 44 4 48 2 4 -3 4 -27 0 -53 -13 -79
-11 -93 11 -93 26 0 25 -8 -2 -37 -24 -25 -48 -29 -66 -11 -9 9 -18 8 -38 -2
-22 -12 -29 -12 -52 1 -25 13 -27 21 -30 82 -2 37 -7 67 -12 67 -6 0 -10 9
-10 19 0 14 8 21 28 24 64 10 66 9 63 -71z m239 61 c0 -15 1 -15 18 0 36 32
52 22 52 -33 0 -47 -2 -50 -25 -50 -16 0 -25 6 -25 15 0 8 -4 15 -10 15 -5 0
-10 -20 -10 -45 0 -33 4 -45 15 -45 9 0 15 -9 15 -24 0 -24 -2 -24 -62 -22
-35 2 -65 4 -67 5 -2 0 4 12 13 26 21 32 22 125 1 125 -8 0 -15 9 -15 19 0 14
8 21 28 24 59 9 72 7 72 -10z m235 11 c22 -9 45 -56 45 -93 0 -66 -44 -111
-108 -111 -86 0 -123 120 -57 186 24 24 81 33 120 18z m155 -6 c0 -9 3 -9 12
0 20 20 58 14 83 -14 54 -58 18 -165 -61 -180 -27 -5 -34 -11 -34 -30 0 -15 6
-24 15 -24 8 0 15 -9 15 -20 0 -18 -7 -20 -60 -20 -53 0 -60 2 -60 20 0 11 5
20 10 20 6 0 10 42 10 105 0 87 -3 105 -15 105 -16 0 -19 9 -7 26 14 22 92 32
92 12z m172 -460 c2 -40 2 -75 0 -78 -3 -4 -134 -2 -138 3 -1 1 -4 22 -5 47
-3 36 0 45 14 48 14 3 17 -4 17 -37 0 -23 5 -41 11 -41 7 0 10 14 7 35 -2 19
-3 35 -2 35 1 0 9 3 18 6 13 5 16 -1 16 -34 0 -27 5 -42 16 -46 14 -5 16 3 14
56 -3 79 -3 78 14 78 11 0 15 -18 18 -72z m-612 50 c0 -3 3 -13 6 -22 4 -11 1
-16 -10 -16 -9 0 -16 5 -16 10 0 6 -4 10 -10 10 -5 0 -10 -20 -10 -45 0 -25 5
-45 10 -45 6 0 10 -4 10 -10 0 -5 -17 -10 -37 -10 -29 0 -34 3 -25 12 14 14
16 98 2 98 -5 0 -10 -4 -10 -10 0 -5 -4 -10 -10 -10 -5 0 -10 8 -10 18 0 14
-2 15 -10 2 -14 -22 -12 -88 3 -93 16 -6 8 -13 -23 -20 -25 -6 -25 -6 -25 63
0 62 2 70 20 72 36 6 145 3 145 -4z m730 -9 c0 -5 -7 -9 -15 -9 -15 0 -20 12
-9 23 8 8 24 -1 24 -14z m-570 -8 c0 -27 -17 -35 -28 -15 -11 21 -46 14 -50
-9 -7 -34 7 -67 29 -67 11 0 22 7 25 15 4 8 11 15 18 15 6 0 17 9 24 20 8 13
23 20 42 20 24 0 31 -5 36 -27 9 -35 -7 -57 -45 -61 -25 -3 -33 1 -40 20 l-10
23 0 -22 c-1 -20 -6 -23 -44 -23 -52 0 -67 13 -67 59 0 47 24 71 72 71 31 0
38 -4 38 -19z m508 -18 c12 -12 13 -18 4 -21 -14 -4 -16 -52 -2 -52 6 0 10 -4
10 -10 0 -5 -11 -10 -24 -10 -21 0 -24 6 -29 47 -3 31 -1 51 6 55 16 10 16 10
35 -9z m288 -9 c-3 -9 -6 -19 -6 -24 0 -5 -7 -16 -16 -24 -14 -15 -14 -17 0
-22 25 -10 19 -43 -8 -50 -49 -12 -60 -3 -62 53 -2 55 5 68 46 76 47 8 52 7
46 -9z m-595 -1 c5 -71 4 -83 -5 -84 -6 0 -27 -1 -46 -2 l-35 -2 0 48 0 47 43
0 c23 0 42 -3 43 -7z m89 -9 c0 -11 -6 -14 -22 -10 l-23 6 23 -12 c35 -18 26
-52 -15 -56 -31 -3 -32 -3 -28 35 1 21 3 41 4 46 1 4 15 7 31 7 21 0 30 -5 30
-16z m282 -26 c6 -50 8 -44 -17 -52 -18 -5 -20 -1 -20 44 0 40 3 50 16 50 12
0 18 -12 21 -42z m110 0 c3 -24 3 -45 2 -47 -2 -2 -23 -4 -47 -5 l-43 -1 0 47
1 48 41 0 c42 0 42 0 46 -42z"/>
<path d="M1585 2823 c-11 -3 -35 -12 -53 -20 -39 -19 -48 -11 126 -111 l122
-71 0 94 c0 79 -3 94 -17 100 -24 9 -153 15 -178 8z"/>
<path d="M1820 2620 c0 -158 0 -161 20 -150 11 6 25 8 31 4 17 -10 -14 -36
-95 -79 -42 -22 -76 -43 -76 -46 0 -3 34 -25 76 -49 l75 -43 27 20 c34 25 90
134 98 192 l7 43 -32 -16 c-31 -16 -51 -14 -51 4 0 5 18 19 40 30 l39 20 -13
45 c-20 64 -61 130 -100 160 -18 14 -36 25 -39 25 -4 0 -7 -72 -7 -160z"/>
<path d="M1420 2723 c-42 -52 -72 -116 -78 -171 l-5 -45 34 20 c19 11 57 33
84 48 28 16 76 44 108 63 l59 34 -74 44 c-40 24 -78 44 -85 44 -6 0 -25 -17
-43 -37z"/>
<path d="M1598 2617 c-32 -18 -58 -39 -58 -47 0 -8 -5 -22 -10 -30 -9 -13 -12
-13 -23 2 -12 15 -20 13 -90 -28 -87 -50 -87 -52 -44 -144 20 -43 99 -130 118
-130 5 0 9 57 9 126 0 114 2 125 18 122 9 -2 18 -14 20 -28 2 -18 18 -34 60
-59 l57 -33 63 33 63 33 -3 75 -3 75 -55 33 c-30 18 -57 33 -60 33 -3 -1 -31
-15 -62 -33z"/>
<path d="M1540 2301 l0 -89 31 -11 c18 -6 55 -11 84 -11 52 0 150 24 159 38 4
7 -254 162 -269 162 -3 0 -5 -40 -5 -89z"/>
<path d="M2927 2628 c-9 -33 6 -82 26 -86 21 -4 32 38 20 75 -12 36 -39 42
-46 11z"/>
<path d="M3160 2590 c0 -51 12 -64 38 -38 25 25 11 88 -19 88 -16 0 -19 -8
-19 -50z"/>
<path d="M2918 2208 c-7 -19 2 -38 19 -38 9 0 13 8 11 22 -3 25 -23 35 -30 16z"/>
<path d="M3610 2210 c0 -5 7 -10 15 -10 8 0 15 5 15 10 0 6 -7 10 -15 10 -8 0
-15 -4 -15 -10z"/>
<path d="M3618 2133 c6 -2 18 -2 25 0 6 3 1 5 -13 5 -14 0 -19 -2 -12 -5z"/>
<path d="M3032 2193 c2 -16 8 -28 13 -28 6 0 11 12 13 28 2 20 -1 27 -13 27
-12 0 -15 -7 -13 -27z"/>
<path d="M3120 2180 c0 -5 5 -10 11 -10 5 0 7 5 4 10 -3 6 -8 10 -11 10 -2 0
-4 -4 -4 -10z"/>
<path d="M3510 2211 c0 -5 -3 -16 -6 -24 -3 -8 2 -17 10 -20 12 -5 16 1 16 23
0 17 -4 30 -10 30 -5 0 -10 -4 -10 -9z"/>
</g>
</svg>
